# Blender 4.1.1
# www.blender.org
mtllib Axe.mtl
o Cylinder
v -0.455949 -6.699109 0.842102
v -1.055325 -5.939013 -0.136920
v -0.923199 -6.202596 0.549038
v -0.372758 -0.007285 0.623172
v -0.392208 6.323346 0.366341
v 0.403849 7.239913 0.451184
v -0.793299 -6.547756 -0.452154
v -0.730695 -0.153239 -0.141702
v -0.479887 6.293998 -0.437184
v -0.337920 1.647001 -0.139760
v -0.129197 6.703490 -0.781701
v 0.453073 -7.641094 0.527600
v 0.336974 -5.180243 0.479797
v 0.561243 0.729590 0.454055
v 0.385704 -5.182620 -0.102361
v 0.696995 -0.105433 -0.021951
v 0.254894 2.128141 0.622802
v 0.840526 2.123961 0.437938
v 1.123084 1.993666 -0.007690
v 0.191332 -7.431026 -0.374007
v 0.436937 -0.154555 -0.510406
v -0.206405 -0.106560 -0.678968
v 0.332107 1.793674 -0.752430
v 0.417191 7.227969 -0.701584
v 0.896007 1.671006 -0.550516
vn -0.9763 0.0550 0.2092
vn -0.9937 -0.0234 0.1093
vn -0.1485 0.0375 0.9882
vn -0.9019 0.1964 0.3846
vn -0.8343 0.2453 0.4938
vn -0.7542 0.6565 -0.0155
vn -0.7169 0.0408 -0.6960
vn -0.7128 0.6994 0.0522
vn -0.6965 0.7057 0.1299
vn -0.6653 -0.0669 -0.7436
vn 0.4354 -0.0126 0.9001
vn 0.9954 0.0486 0.0831
vn 0.2288 -0.0671 0.9712
vn 0.3011 0.0232 0.9533
vn 0.8517 0.0714 0.5192
vn 0.8264 -0.1714 0.5363
vn 0.0441 -0.0392 -0.9983
vn 0.2515 -0.0266 -0.9675
vn 0.8837 -0.0468 -0.4658
vn 0.9908 0.1350 0.0101
vn 0.2468 -0.0833 -0.9655
vn 0.3104 -0.1244 -0.9424
vn 0.9058 0.0667 -0.4185
vn 0.8687 -0.2281 -0.4396
vn -0.9086 0.0758 0.4107
vn -0.5045 0.0345 0.8627
vn -0.9144 -0.4043 0.0208
vn -0.7226 -0.6910 -0.0187
vn -0.7625 -0.0784 0.6422
vn -0.7287 0.0403 -0.6836
vn -0.6685 -0.7434 0.0209
vn -0.6576 -0.0681 -0.7503
vn -0.7136 0.1564 -0.6828
vn -0.6850 0.1667 -0.7092
vn 0.1384 0.0071 -0.9904
vn 0.3590 0.0351 0.9327
vn 0.1548 0.0304 0.9875
vn -0.7140 -0.6853 0.1436
vn 0.9958 -0.0374 0.0835
vn 0.9254 -0.0627 0.3738
vn 0.3003 -0.0491 0.9526
vn 0.8128 -0.1563 0.5611
vn 0.9349 -0.0382 -0.3530
vn 0.9562 -0.0478 -0.2887
vn 0.3378 0.0035 -0.9412
vn 0.9408 -0.1891 -0.2812
vt 0.296171 0.481836
vt 0.378674 0.478409
vt 0.209013 0.744435
vt 0.130010 0.749718
vt 0.228178 0.814939
vt 0.285150 0.754369
vt 0.573172 0.868696
vt 0.467930 0.843390
vt 0.408150 0.746741
vt 0.798061 0.892036
vt 0.325161 0.524908
vt 0.446901 0.726416
vt 0.197098 0.813137
vt 0.469087 0.815703
vt 0.630033 0.747112
vt 0.576287 0.280741
vt 0.651821 0.564542
vt 0.789093 0.573616
vt 0.801696 0.316580
vt 0.611198 0.813576
vt 0.708528 0.819819
vt 0.745699 0.744360
vt 0.895700 0.462229
vt 0.878375 0.748144
vt 0.869252 0.815493
s 0
usemtl Material.002
f 2/1/1 3/2/1 8/3/1
f 9/4/2 10/5/2 5/6/2
f 6/7/3 5/6/3 17/8/3
f 8/3/4 4/9/4 10/5/4
f 10/5/5 4/9/5 17/8/5
f 24/10/6 5/6/6 6/7/6
f 7/11/7 8/3/7 22/12/7
f 9/4/8 5/6/8 24/10/8
f 9/4/9 24/10/9 11/13/9
f 23/14/10 10/5/10 11/13/10
f 14/15/11 1/16/11 13/17/11
f 15/18/12 13/17/12 12/19/12
f 4/9/13 14/15/13 17/8/13
f 6/7/14 17/8/14 18/20/14
f 6/7/15 18/20/15 19/21/15
f 16/22/16 19/21/16 14/15/16
f 20/23/17 7/11/17 22/12/17
f 21/24/18 20/23/18 22/12/18
f 21/24/19 16/22/19 15/18/19
f 24/10/20 6/7/20 19/21/20
f 22/12/21 25/25/21 21/24/21
f 23/14/22 25/25/22 22/12/22
f 24/10/23 19/21/23 25/25/23
f 25/25/24 16/22/24 21/24/24
f 4/9/25 8/3/25 3/2/25
f 4/9/26 3/2/26 1/16/26
f 2/1/27 7/11/27 3/2/27
f 3/2/28 12/19/28 1/16/28
f 10/5/29 17/8/29 5/6/29
f 8/3/30 7/11/30 2/1/30
f 7/11/31 20/23/31 12/19/31
f 11/13/32 10/5/32 9/4/32
f 22/12/33 8/3/33 10/5/33
f 23/14/34 22/12/34 10/5/34
f 11/13/35 24/10/35 23/14/35
f 12/19/36 13/17/36 1/16/36
f 4/9/37 1/16/37 14/15/37
f 7/11/38 12/19/38 3/2/38
f 13/17/39 15/18/39 14/15/39
f 15/18/40 16/22/40 14/15/40
f 17/8/41 14/15/41 18/20/41
f 18/20/42 14/15/42 19/21/42
f 15/18/43 20/23/43 21/24/43
f 20/23/44 15/18/44 12/19/44
f 25/25/45 23/14/45 24/10/45
f 25/25/46 19/21/46 16/22/46
o Cube
v 0.413541 4.257369 0.784530
v 0.242254 6.249611 0.744099
v -1.033776 4.113475 0.154087
v -1.205063 6.105717 0.113657
v 3.302123 3.137150 -0.589242
v 3.075528 7.185560 -0.676174
v 0.201967 4.236338 -1.035439
v 0.030681 6.228579 -1.075870
v -0.123754 4.226278 0.602463
v -0.295041 6.218520 0.562033
v 2.940528 3.331502 -0.718280
v 2.674064 7.137199 -0.797900
v -0.571289 4.169333 -0.307521
v -0.742576 6.161575 -0.347952
v 3.047592 3.348239 -0.347134
v 2.781127 7.153936 -0.426754
v 0.552376 6.452380 -0.156995
v 0.728763 4.047586 -0.106999
vn -0.4399 -0.0196 0.8978
vn -0.6802 -0.0733 -0.7293
vn 0.3121 -0.0006 -0.9500
vn 0.4062 0.0496 0.9124
vn -0.3086 -0.9420 0.1315
vn -0.2500 0.9595 0.1299
vn -0.1888 0.9815 0.0314
vn -0.2384 -0.9692 -0.0617
vn 0.1099 -0.0123 -0.9939
vn -0.3205 -0.0083 0.9472
vn -0.0261 -0.9968 0.0752
vn -0.2827 0.9565 -0.0725
vn -0.2722 0.9616 0.0352
vn -0.2225 -0.9636 0.1481
vn 0.6764 0.0580 0.7342
vn -0.6999 -0.0746 -0.7103
vt 0.375000 0.125000
vt 0.625000 0.125000
vt 0.625000 0.250000
vt 0.375000 0.250000
vt 0.375000 0.375000
vt 0.625000 0.375000
vt 0.625000 0.500000
vt 0.375000 0.500000
vt 0.375000 0.625000
vt 0.625000 0.625000
vt 0.625000 0.750000
vt 0.375000 0.750000
vt 0.375000 0.875000
vt 0.625000 0.875000
vt 0.625000 1.000000
vt 0.375000 1.000000
vt 0.250000 0.625000
vt 0.250000 0.750000
vt 0.750000 0.625000
vt 0.875000 0.625000
vt 0.875000 0.750000
vt 0.750000 0.750000
vt 0.750000 0.500000
vt 0.875000 0.500000
vt 0.250000 0.500000
vt 0.375000 0.000000
vt 0.625000 0.000000
vt 0.125000 0.500000
vt 0.125000 0.625000
vt 0.125000 0.750000
s 0
usemtl Material.001
f 34/26/47 35/27/47 29/28/47 28/29/47
f 38/30/48 39/31/48 33/32/48 32/33/48
f 36/34/49 37/35/49 31/36/49 30/37/49
f 40/38/50 41/39/50 27/40/50 26/41/50
f 43/42/51 36/34/51 30/37/51 40/43/51
f 42/44/52 35/45/52 27/46/52 41/47/52
f 39/48/53 29/49/53 35/45/53 42/44/53
f 38/50/54 32/33/54 36/34/54 43/42/54
f 32/33/55 33/32/55 37/35/55 36/34/55
f 26/51/56 27/52/56 35/27/56 34/26/56
f 28/53/57 38/50/57 43/42/57 34/54/57
f 33/32/58 39/48/58 42/44/58 37/35/58
f 37/35/59 42/44/59 41/47/59 31/36/59
f 34/54/60 43/42/60 40/43/60 26/55/60
f 30/37/61 31/36/61 41/39/61 40/38/61
f 28/29/62 29/28/62 39/31/62 38/30/62
